<svg xmlns="http://www.w3.org/2000/svg" viewBox="155 70 200 325">
  <defs>
    <mask id="liquidMasked">
      <path fill="#FFF" d="M294.3,377.1c-32.8,9.4-68.2,9.3-101-0.2c-7.1-60.7-14.1-119.7-21.5-175.6c48.3,0,96.5,0,144.8,0 C309,257.2,301.7,316.3,294.3,377.1z" />
    </mask>
  </defs>
  <rect x="0.5" y="0.5" class="bg" width="500" height="500"/>
  <path class="cup" d="M301.4,382.2c-37.4,10.4-77.9,10.3-115.2-0.3c-8.1-66.7-16.1-131.6-24.5-193c55.1,15,110.1,15,165.2,0
C318.1,250.3,309.8,315.3,301.4,382.2z"/>
  <g id="coffeeMasked" mask="url(#liquidMasked)">
    <path class="liquid" d="M293.8,376.6c-32.8,9.4-68.2,9.3-101-0.2c-7.1-60.7-14.1-119.7-21.5-165.6c0,0,12-7.1,31.3-0.4
c29.8,10.3,32.7-0.2,48.7-0.2c27.4,0,29.2,8.8,44.7,1.3c14.7-7.1,20.2-0.7,20.2-0.7C308.5,256.7,301.2,315.8,293.8,376.6z"/>
  </g>
  <g class="steam">
    <path d="M190,169c0,0-16.5-17-13-32.5s22-5.5,13.5,6c-7.9,10.6-23.8-6.9-12-21.8c11.5-14.5,10.7-22,10-24.8
c-5-18.4-18.6-5.8-12.6-1.1c9.4,7.1,15.2-16.5,13.2-24.5"/>
  </g>

  <g class="steam">
    <path d="M245,169c0,0-16.5-17-13-32.5s22-5.5,13.5,6c-7.9,10.6-23.8-6.9-12-21.8c11.5-14.5,10.7-22,10-24.8
c-5-18.4-18.6-5.8-12.6-1.1c9.4,7.1,15.2-16.5,13.2-24.5"/>
  </g>

  <g class="steam">
    <path d="M300,169c0,0-16.5-17-13-32.5s22-5.5,13.5,6c-7.9,10.6-23.8-6.9-12-21.8c11.5-14.5,10.7-22,10-24.8
c-5-18.4-18.6-5.8-12.6-1.1c9.4,7.1,15.2-16.5,13.2-24.5"/>
  </g>
  <g class="cup">
    <path d="M160 187 Q 245 160 329 187" fill="transparent"/>
  </g>

  <g class="cup">
    <path d="M320 240 Q 380 260 310 320" fill="transparent"/>
  </g>
</svg>
