<?xml version="1.0" encoding="UTF-8"?>
<svg width="256px" height="256px" viewBox="0 0 256 256" version="1.1" xmlns="http://www.w3.org/2000/svg" xmlns:xlink="http://www.w3.org/1999/xlink">
    <!-- Generator: Sketch 42 (36781) - http://www.bohemiancoding.com/sketch -->
    <title>frameworks/logo_koa</title>
    <desc>Created with Sketch.</desc>
    <defs></defs>
    <g id="Page-1" stroke="none" stroke-width="1" fill="none" fill-rule="evenodd">
        <g id="frameworks/logo_koa" fill="#37404E">
            <path d="M54.64,68 L54.64,127.76 L81.04,98 L82.24,98 L62.68,120.08 L88.48,158 L80.08,158 L57.88,125.36 L54.64,129.08 L54.64,158 L46.24,158 L46.24,68 L54.64,68 Z M101,151.28 C95.7199736,146.479976 93.08,139.08005 93.08,129.08 C93.08,119.07995 95.8199726,111.320028 101.3,105.8 C106.780027,100.279972 113.739958,97.52 122.18,97.52 C130.620042,97.52 137.479974,99.919976 142.76,104.72 C148.040026,109.520024 150.68,116.91995 150.68,126.92 C150.68,136.92005 147.940027,144.679972 142.46,150.2 C136.979973,155.720028 130.020042,158.48 121.58,158.48 C113.139958,158.48 106.280026,156.080024 101,151.28 Z M107.24,106.58 C103.23998,111.980027 101.24,119.499952 101.24,129.14 C101.24,138.780048 103.079982,145.919977 106.76,150.56 C110.440018,155.200023 115.31997,157.52 121.4,157.52 C127.48003,157.52 132.51998,154.820027 136.52,149.42 C140.52002,144.019973 142.52,136.500048 142.52,126.86 C142.52,117.219952 140.680018,110.080023 137,105.44 C133.319982,100.799977 128.44003,98.48 122.36,98.48 C116.27997,98.48 111.24002,101.179973 107.24,106.58 Z M207.84,158 C202.399973,158 198.68001,156.96001 196.68,154.88 C194.839991,153.119991 193.92,151.600006 193.92,150.32 L193.92,147.8 C189.99998,154.920036 183.720043,158.48 175.08,158.48 C164.99995,158.48 159.280007,153.920046 157.92,144.8 C157.759999,143.839995 157.68,142.860005 157.68,141.86 C157.68,140.859995 157.839998,139.760006 158.16,138.56 C158.480002,137.359994 159.399992,136.040007 160.92,134.6 C163.960015,131.719986 170.639948,129.960003 180.96,129.32 C183.520013,129.079999 185.879989,128.96 188.04,128.96 C190.200011,128.96 192.159991,129.039999 193.92,129.2 L193.92,109.28 C193.759999,109.2 193.759999,108.820003 193.92,108.14 C194.080001,107.459997 193.940002,106.580005 193.5,105.5 C193.059998,104.419995 192.480004,103.360005 191.76,102.32 C191.039996,101.279995 189.760009,100.380004 187.92,99.62 C186.079991,98.8599962 183.680015,98.48 180.72,98.48 C177.759985,98.48 174.30002,99.0199946 170.34,100.1 C166.37998,101.180005 163.480009,102.239995 161.64,103.28 L161.16,102.44 C168.280036,99.1599836 175.519963,97.52 182.88,97.52 C191.120041,97.52 196.559987,98.9999852 199.2,101.96 C201.28001,104.280012 202.32,106.719987 202.32,109.28 L202.32,149.48 C202.32,151.800012 202.779995,153.579994 203.7,154.82 C204.620005,156.060006 205.559995,156.72 206.52,156.8 L207.84,157.04 L211.56,157.04 L211.56,158 L207.84,158 Z M177,157.52 C181.240021,157.52 185.059983,156.060015 188.46,153.14 C191.860017,150.219985 193.679999,147.400014 193.92,144.68 L193.92,130.16 C191.759989,129.999999 189.580011,129.92 187.38,129.92 C185.179989,129.92 183.000011,130.039999 180.84,130.28 C174.75997,131.000004 170.800009,132.35999 168.96,134.36 C167.119991,136.36001 166.2,139.119982 166.2,142.64 C166.2,143.280003 166.24,143.999996 166.32,144.8 C167.040004,153.280042 170.599968,157.52 177,157.52 Z" id="koa"></path>
        </g>
    </g>
</svg>