<svg viewBox="0 0 138.4 47.1" id="logo-quidco" xmlns="http://www.w3.org/2000/svg" width="100%" height="100%"><path  fill="#FFFFFF" d="M55.9 37.6c-.2.2-.4.3-.6.3h-4.7c-.2 0-.4-.1-.6-.3-.2-.2-.3-.4-.3-.6v-1c-1.2.8-2.3 1.4-3.3 1.7-1 .3-2.2.5-3.6.5-1.5 0-2.8-.2-3.7-.7-1-.5-1.7-1.2-2.3-2.1-.5-.9-.9-1.9-1.1-3.1-.2-1.2-.3-2.4-.3-3.8V14.4c0-.2.1-.4.3-.6.2-.2.4-.3.6-.3h5.1c.2 0 .4.1.6.3.2.2.3.4.3.6v14.1c0 .7 0 1.4.1 1.9s.2.9.5 1.2c.2.3.5.5 1 .7.4.1.9.2 1.6.2.6 0 1.3-.1 1.9-.4.7-.3 1.3-.6 2.1-1V14.4c0-.2.1-.4.3-.6.2-.2.4-.3.6-.3h5.1c.2 0 .4.1.6.3.2.2.3.4.3.6V37c-.3.2-.4.4-.5.6m11.2-.6c0 .2-.1.4-.3.6-.2.2-.4.3-.6.3H61c-.2 0-.4-.1-.6-.3-.2-.2-.3-.4-.3-.6V14.3c0-.2.1-.4.3-.6.2-.2.4-.3.6-.3h5.2c.2 0 .4.1.6.3.2.2.3.4.3.6V37zm24.4-1.1c0 .3-.1.6-.2.8-.2.2-.5.3-1.1.5-1.2.3-2.6.6-4.2.8-1.6.2-3.2.3-4.8.3-3.4 0-6.1-1-7.9-2.8-1.8-1.9-2.7-4.6-2.7-8V24c0-3.3.9-6 2.6-7.9 1.7-2 4.4-2.9 8-2.9.4 0 .9 0 1.6.1.6.1 1.3.1 1.9.2V6.1c0-.2.1-.4.3-.6.2-.2.4-.3.6-.3h5.1c.2 0 .4.1.6.3.2.2.3.4.3.6v29.8zm-6.9-16.8c-.5-.1-1.1-.1-1.7-.1-.6 0-1.2-.1-1.7-.1-.8 0-1.4.1-1.9.4-.5.3-.9.6-1.1 1.1-.3.5-.5 1-.6 1.7-.1.6-.2 1.3-.2 2.1v3.3c0 .8.1 1.5.2 2.1.1.6.3 1.2.6 1.7s.7.8 1.1 1.1c.5.3 1.1.4 1.9.4.7 0 1.4 0 2-.1.6-.1 1.1-.1 1.5-.2V19.1zm26.1 18.2c-.1.1-.4.2-.7.3-.6.1-1.4.3-2.3.4-.9.1-2 .2-3.3.2-3 0-5.4-.9-7.2-2.8-1.8-1.8-2.7-4.5-2.7-8v-3.6c0-3.5.9-6.1 2.7-8 1.8-1.8 4.2-2.8 7.2-2.8 1.3 0 2.4.1 3.3.2.9.1 1.7.3 2.3.4.3.1.5.2.7.3.1.1.2.4.2.7v3.8c0 .2-.1.4-.2.5-.2.1-.3.2-.6.2h-.1c-.8-.1-1.5-.2-2.3-.2-.7-.1-1.7-.1-2.9-.1-.5 0-.9.1-1.4.2-.4.2-.8.4-1.1.8-.3.4-.6.9-.7 1.5-.2.6-.3 1.4-.3 2.4v3.6c0 .9.1 1.7.3 2.4.2.6.4 1.1.7 1.5.3.4.7.6 1.1.8.4.2.9.2 1.4.2 1.2 0 2.2 0 2.9-.1.7-.1 1.5-.1 2.3-.2h.1c.2 0 .4.1.6.2.2.1.2.3.2.5v3.8c0 .5-.1.7-.2.9m22.9-10.1c0 1.7-.2 3.2-.7 4.6-.5 1.4-1.1 2.5-2 3.5-.9 1-2 1.7-3.3 2.2-1.3.5-2.8.8-4.6.8-1.7 0-3.2-.3-4.6-.8-1.3-.5-2.4-1.3-3.3-2.2-.9-.9-1.6-2.1-2.1-3.5s-.7-2.9-.7-4.6v-3c0-1.7.2-3.2.7-4.6.5-1.4 1.2-2.5 2.1-3.5.9-1 2-1.7 3.3-2.2 1.3-.5 2.8-.8 4.6-.8 1.7 0 3.2.3 4.6.8 1.3.5 2.4 1.3 3.3 2.2.9 1 1.6 2.1 2 3.5.5 1.4.7 2.9.7 4.6v3zm-6.8-3c0-3.5-1.2-5.2-3.7-5.2-1.2 0-2.2.4-2.8 1.3-.6.9-1 2.2-1 3.9v3c0 1.7.3 3 1 3.9.6.9 1.6 1.3 2.8 1.3 2.5 0 3.7-1.7 3.7-5.2v-3zM67.3 9.9c0 .2-.1.4-.3.6-.2.2-.4.3-.6.3H61c-.2 0-.4-.1-.6-.3-.2-.2-.3-.4-.3-.6v-4c0-.2.1-.4.3-.6.2-.2.4-.3.6-.3h5.5c.2 0 .4.1.6.3.2.2.3.4.3.6v4zm-36.1 3.3c-.7-1.7-1.5-3.1-2.7-4.2-1.1-1.1-2.4-1.9-4-2.4-1.5-.5-3.2-.7-4.9-.7-1.7 0-3.4.3-4.9.7-1.5.5-2.8 1.3-4 2.4-1.1 1.1-2 2.5-2.7 4.2-.6 1.7-1 3.8-1 6.3v5.1c0 2.5.3 4.6 1 6.3.6 1.7 1.5 3.1 2.7 4.2 1.1 1.1 2.4 1.9 4 2.4.8.3 1.7.5 2.6.6.1.2.3.4.5.7.8 1 1.9 2.1 3.3 3.2.4.3.8.6 1.3.9.5.3 1 .6 1.4.9.5.3 1 .5 1.4.8.5.2.8.4 1.1.5.3.1.5.1.8.2.2 0 .4-.1.6-.3l2.4-3.2c.2-.2.2-.4.2-.7 0-.3-.2-.5-.4-.6l-.1-.1c-.3-.2-.7-.5-1.2-.8-.5-.3-.9-.6-1.4-.9-.5-.3-1-.6-1.4-.9-.2-.1-.4-.3-.5-.4 1.2-.5 2.3-1.2 3.2-2.1 1.1-1.1 2-2.5 2.7-4.2.6-1.7 1-3.8 1-6.3v-5.1c0-2.6-.3-4.7-1-6.5zm-15.4 17c-.8-1.1-1.3-3-1.3-5.6v-5.1c0-2.6.4-4.5 1.3-5.6.8-1.1 2.2-1.7 3.9-1.7 1.8 0 3.1.6 4 1.7.9 1.1 1.3 3 1.3 5.6v5.1c0 2.6-.4 4.5-1.3 5.6-.9 1.1-2.2 1.7-4 1.7-1.7 0-3-.6-3.9-1.7z"></path></svg>