<?xml version="1.0" standalone="no"?>
<!DOCTYPE svg PUBLIC "-//W3C//DTD SVG 20010904//EN"
  "http://www.w3.org/TR/2001/REC-SVG-20010904/DTD/svg10.dtd">
<svg version="1.0" xmlns="http://www.w3.org/2000/svg"
     width="792.000000pt" height="138.000000pt" viewBox="0 0 792.000000 138.000000"
     preserveAspectRatio="xMidYMid meet">
  <g transform="translate(0.000000,138.000000) scale(0.100000,-0.100000)"
     fill="#FFFFFF" stroke="none">
    <path d="M3735 1371 c-65 -17 -126 -64 -154 -118 -6 -12 -11 -48 -11 -80 0
-103 47 -151 212 -215 168 -65 198 -92 198 -180 0 -138 -169 -194 -398 -132
-21 6 -23 4 -20 -22 3 -26 8 -30 58 -41 80 -16 208 -15 268 2 60 18 119 66
138 112 8 18 14 58 14 90 0 99 -46 149 -185 202 -180 70 -225 104 -227 177 -3
61 19 101 71 132 38 22 57 26 116 26 38 0 97 -8 129 -18 60 -18 75 -14 76 21
0 30 -214 63 -285 44z"/>
    <path d="M4420 1364 c-108 -29 -180 -90 -229 -193 -24 -52 -26 -66 -26 -201 0
-136 2 -149 26 -201 36 -76 90 -133 157 -166 52 -25 67 -28 167 -28 148 0 185
8 185 41 0 25 -1 25 -47 17 -91 -15 -214 -9 -263 13 -94 43 -156 139 -168 262
-20 196 51 347 190 399 60 22 179 22 247 -1 44 -15 55 -16 62 -5 22 35 -2 51
-100 69 -73 13 -135 12 -201 -6z"/>
    <path d="M5103 1370 c-166 -35 -263 -181 -263 -395 0 -149 47 -268 132 -336
67 -53 107 -64 223 -64 85 1 108 5 150 25 126 62 195 194 195 375 0 180 -71
314 -195 371 -59 27 -174 39 -242 24z m198 -65 c60 -21 124 -87 151 -155 19
-46 22 -75 22 -175 0 -132 -15 -188 -69 -259 -69 -90 -231 -119 -348 -62 -110
53 -152 145 -151 326 0 95 4 125 23 172 25 64 97 138 153 155 50 17 170 15
219 -2z"/>
    <path d="M7568 1367 c-57 -16 -112 -57 -135 -100 -23 -43 -23 -141 0 -185 24
-43 87 -83 210 -129 158 -60 207 -118 179 -212 -23 -75 -105 -121 -216 -121
-56 1 -80 4 -173 25 -31 7 -33 6 -33 -18 0 -39 51 -52 200 -52 117 0 128 2
177 28 99 51 138 162 95 260 -26 58 -75 91 -222 148 -140 53 -175 86 -175 164
0 64 23 100 81 130 50 26 158 26 233 1 53 -18 55 -18 68 0 20 28 17 32 -39 49
-75 22 -193 28 -250 12z"/>
    <path d="M22 1063 c3 -288 4 -300 26 -345 52 -105 152 -155 292 -145 121 8
191 51 241 147 23 44 24 52 27 343 l4 297 -31 0 -31 0 0 -277 c0 -171 -4 -293
-11 -318 -16 -59 -83 -119 -149 -135 -102 -25 -214 6 -263 72 -44 59 -47 86
-47 379 l0 279 -31 0 -30 0 3 -297z"/>
    <path d="M820 970 l0 -390 25 0 25 0 2 346 3 347 230 -346 c209 -315 233 -347
258 -347 l27 0 0 390 0 390 -25 0 -25 0 0 -342 0 -343 -228 342 c-220 332
-228 342 -259 343 l-33 0 0 -390z"/>
    <path d="M1620 970 l0 -392 158 4 c139 4 164 7 219 30 157 64 220 183 211 398
-7 166 -56 253 -176 312 -66 33 -67 33 -239 36 l-173 4 0 -392z m238 340 c141
-16 219 -65 264 -164 20 -44 23 -67 23 -171 0 -111 -2 -124 -28 -177 -16 -32
-46 -73 -69 -92 -60 -52 -115 -68 -255 -73 l-123 -5 0 339 c0 187 3 343 7 346
9 10 84 8 181 -3z"/>
    <path d="M2350 970 l0 -390 215 0 215 0 0 25 0 25 -190 0 -190 0 2 168 3 167
178 3 177 2 0 25 0 25 -180 0 -181 0 3 148 3 147 188 3 c179 2 187 3 187 22 0
19 -7 20 -215 20 l-215 0 0 -390z"/>
    <path d="M2960 971 l0 -391 25 0 25 0 0 170 0 170 98 0 97 0 100 -170 c97
-167 100 -170 133 -170 l33 0 -32 58 c-18 31 -65 111 -105 176 l-71 119 49 25
c90 45 133 141 110 242 -16 67 -36 96 -91 128 -44 26 -53 27 -208 30 l-163 4
0 -391z m300 327 c107 -32 145 -177 69 -263 -42 -47 -102 -65 -221 -65 l-98 0
0 176 0 177 108 -7 c59 -4 123 -12 142 -18z"/>
    <path d="M5690 970 l0 -390 25 0 25 0 0 170 0 170 99 0 99 0 99 -170 c95 -164
99 -169 131 -170 17 0 32 2 32 6 0 3 -46 82 -101 175 -56 93 -100 171 -98 173
2 2 22 13 44 24 77 39 115 103 115 195 0 96 -56 171 -149 197 -20 5 -100 10
-178 10 l-143 0 0 -390z m226 341 c97 -11 142 -35 165 -85 39 -87 12 -183 -64
-227 -36 -20 -58 -24 -159 -27 l-118 -4 0 169 c0 93 3 173 7 176 8 9 81 8 169
-2z"/>
    <path d="M6330 970 l0 -390 215 0 215 0 0 25 0 25 -185 0 -185 0 0 170 0 170
175 0 175 0 0 25 0 25 -175 0 -175 0 0 150 0 150 185 0 c178 0 185 1 185 20 0
19 -7 20 -215 20 l-215 0 0 -390z"/>
    <path d="M7180 944 c0 -354 -2 -421 -15 -449 -22 -45 -56 -60 -132 -58 -56 1
-63 -1 -63 -18 0 -27 44 -42 108 -36 68 7 110 32 136 82 20 39 21 56 24 468
l3 427 -31 0 -30 0 0 -416z"/>
    <path d="M20 140 l0 -100 3940 0 3940 0 0 100 0 100 -3940 0 -3940 0 0 -100z"/>
  </g>
</svg>
