<?xml version="1.0" encoding="utf-8"?>
<!-- Generator: Adobe Illustrator 21.0.0, SVG Export Plug-In . SVG Version: 6.00 Build 0)  -->
<svg version="1.1" id="Layer_1" xmlns="http://www.w3.org/2000/svg" xmlns:xlink="http://www.w3.org/1999/xlink" x="0px" y="0px"
	 viewBox="0 0 303.5 71.5" style="enable-background:new 0 0 303.5 71.5;" xml:space="preserve">
<style type="text/css">
	.st0{fill:#03051C;}
</style>
<g>
	<path class="st0" d="M83.5,33.7c1.5-5.9,1.4-10.9-0.3-15.1c-1-2.3-3-3.8-5.5-4.1c-2.6-0.3-5.4,0.7-7.6,2.8c-0.9,0.8-1,1.4-0.5,2.3
		c0.7,1.2,1.6,3,2,5c1.4,6,0.5,12.8-2.6,21.2c-2.2,6-4.9,10-8.7,13.1c-2.8,2.3-5.8,3.1-8.3,2.3c-2.3-0.8-3.7-3-3.9-6.1
		c-0.2-3.2,0.3-6.8,1.4-11.1c2-7.9,4.2-15.8,6.4-23.5l1-3.5c0.2-0.8,0.1-1,0.1-1c0,0-0.1-0.1-0.7-0.1c-5.1,0-9.1,0-12.9,0.1
		c-0.6,0-0.9,0-1.2,1.2c-2.4,8.9-4.9,18.5-7.7,28.1c-1.2,4.1-3.1,9.3-7.6,13.4c-2.5,2.4-5.3,3.2-8.1,2.4c-2.7-0.8-4.2-3.1-3.9-6.1
		c0.4-3.8,1-7.6,1.8-11.2c0.8-3.3,1.7-6.5,2.6-9.6c0.9-3.3,1.9-6.8,2.7-10.2c1-4.2-0.4-7.5-3.7-8.8c-1.1-0.4-2.3-0.6-3.6-0.6
		c-4.8,0-10,2.7-12.6,6.7c-0.5,0.8-0.5,1-0.5,1c0,0,0.1,0.2,0.6,0.4c3.1,1.1,4.3,3.8,3.6,7.6c-0.3,1.5-0.7,3-1,4.4
		c-0.2,0.8-0.4,1.6-0.6,2.4c-0.4,1.8-0.9,3.7-1.4,5.4c-1.1,4.1-2.1,8.2-2.7,12.3c-1,7.5,1.3,12.4,6.9,14.6
		c5.3,2.1,10.6,1.6,15.4-1.4c2.3-1.5,4.4-3.3,6.7-5.3l0.1-0.1c1-0.9,2-1.7,3-2.6l1.5-1.2l0.4,1.7c0.9,4.2,3.5,7.2,7.4,8.7
		c8.6,3.3,19.6,0.2,27.3-7.9C75.8,53.7,80.6,44.8,83.5,33.7"/>
	<path class="st0" d="M116.3,32c-2.5-1.2-5.3-1.8-8.2-1.8c-2,0-4.1,0.3-6.3,0.9C90.9,34,82.6,44.4,81.9,55.8
		c-0.4,6.8,2.3,11.4,8,13.8c4.4,1.8,9.2,2,14.3,0.6c10.3-2.8,17.8-12.2,19.6-24.5C124.1,42.8,124.1,35.8,116.3,32 M104,63.4
		c-1.6,1.1-3.2,1.7-4.8,1.7c-0.5,0-1.1-0.1-1.6-0.2c-2.1-0.5-3.7-2.2-4.3-4.4c-0.9-3.2-0.3-6.5,0.3-9.3c0.8-3.3,2.2-7.5,5.5-11
		c1.6-1.6,3.4-2.8,5.2-3.4c2-0.7,3.8-0.6,5.3,0.2c1.7,0.9,2.7,2.8,3,5.2c0.1,0.5,0.1,1,0.1,1.5c0,1,0,3.7-0.6,6.2
		c-0.8,3.1-1.9,6.3-3.9,9.2C107,60.8,105.5,62.4,104,63.4"/>
	<path class="st0" d="M161,32c-2.5-1.2-5.3-1.8-8.2-1.8c-2,0-4.1,0.3-6.3,0.9c-10.8,2.9-19.2,13.3-19.9,24.7
		c-0.4,6.8,2.3,11.4,8,13.8c4.4,1.8,9.2,2,14.3,0.6c10.3-2.8,17.8-12.2,19.6-24.5C168.8,42.8,168.8,35.8,161,32 M148.7,63.4
		c-1.6,1.1-3.2,1.7-4.8,1.7c-0.5,0-1.1-0.1-1.6-0.2c-2.1-0.5-3.7-2.2-4.3-4.4c-0.9-3.2-0.3-6.5,0.3-9.3c0.8-3.3,2.2-7.5,5.5-11
		c1.6-1.6,3.4-2.8,5.2-3.4c2-0.7,3.8-0.6,5.3,0.2c1.7,0.9,2.7,2.8,3,5.2c0.1,0.5,0.1,1,0.1,1.5c0,1,0,3.7-0.6,6.2
		c-0.8,3.1-1.9,6.3-3.9,9.2C151.7,60.8,150.2,62.4,148.7,63.4"/>
	<path class="st0" d="M251.1,32c-2.5-1.2-5.3-1.8-8.2-1.8c-2,0-4.1,0.3-6.3,0.9c-10.8,2.9-19.2,13.3-19.9,24.7
		c-0.4,6.8,2.3,11.4,8,13.8c4.4,1.8,9.2,2,14.3,0.6c10.3-2.8,17.8-12.2,19.6-24.5C259,42.8,259,35.8,251.1,32 M238.9,63.4
		c-1.6,1.1-3.2,1.7-4.8,1.7c-0.5,0-1.1-0.1-1.6-0.2c-2.1-0.5-3.7-2.2-4.3-4.4c-0.9-3.2-0.3-6.5,0.3-9.3c0.8-3.3,2.2-7.5,5.5-11
		c1.6-1.6,3.4-2.8,5.2-3.4c2-0.7,3.8-0.6,5.3,0.2c1.7,0.9,2.7,2.8,3,5.2c0.1,0.5,0.1,1,0.1,1.5c0,1,0,3.7-0.6,6.2
		c-0.8,3.1-1.9,6.3-3.9,9.2C241.9,60.8,240.4,62.3,238.9,63.4"/>
	<path class="st0" d="M295.8,32c-2.5-1.2-5.3-1.8-8.2-1.8c-2,0-4.1,0.3-6.3,0.9c-10.8,2.9-19.2,13.3-19.9,24.7
		c-0.4,6.8,2.3,11.4,8,13.8c4.4,1.8,9.2,2,14.3,0.6c10.3-2.8,17.8-12.2,19.6-24.5C303.7,42.8,303.7,35.8,295.8,32 M283.6,63.4
		c-1.6,1.1-3.2,1.7-4.8,1.7c-0.5,0-1.1-0.1-1.6-0.2c-2.1-0.5-3.7-2.2-4.3-4.4c-0.9-3.2-0.3-6.5,0.3-9.3c0.8-3.3,2.2-7.5,5.5-11
		c1.6-1.6,3.4-2.8,5.2-3.4c2-0.7,3.8-0.6,5.3,0.2c1.7,0.9,2.7,2.8,3,5.2c0.1,0.5,0.1,1,0.1,1.5c0,1,0,3.7-0.6,6.2
		c-0.8,3.1-1.9,6.3-3.9,9.2C286.6,60.8,285.1,62.3,283.6,63.4"/>
	<path class="st0" d="M173.6,57.3c-2.1,1.2-3.7,3.2-4.6,5.5c-0.8,2.1-0.7,4.1,0.1,5.8c0.7,1.5,1.9,2.4,3.4,2.7
		c1.6,0.3,3.5-0.1,5.4-1.2c0,0,0,0,0,0c2.1-1.3,3.7-3.1,4.6-5.3c0.8-2.1,0.8-4.3-0.1-6.1C180.9,55.9,177.2,55.3,173.6,57.3"/>
	<path class="st0" d="M193.8,23.7c2.1-7.3,3.6-10,5.5-17.3c0.9-3.6-0.4-5.7-3.6-6.2c-3.2-0.6-6.4,0.1-9.6,1.2
		c-0.7,3.4-1.2,6.5-1.9,9.6c-3.1,13-5.7,21.6-8.9,34.6c0,0.1-0.1,0.5-0.1,1.1c0,0.1,0,0.1,0,0.2c0.2,3,2.8,4.9,5.9,4.3
		c2.6-0.5,4.4-2.8,5.2-5.1l0.1-0.4l0.8-2.2l4.8-14.5L193.8,23.7z"/>
	<path class="st0" d="M210.7,65.3c0,0-0.1-0.1-0.1-0.1c-1.2-0.7-2-1.7-2.2-2.9c-0.1-0.6-0.1-1.3,0-2.1c0.1-0.7,0.4-1.5,0.7-2.5
		c2-5.4,4-10.7,5.9-16.1c0.5-1.4,0.8-3,0.8-4.4c0-4.3-3-7.1-7.4-7.2c-5.1-0.1-9.5,2-13.4,5.6c-0.5,0.5-1.2,1.4-1.5,2.9
		c-0.1,0.4-0.1,0.7,0,0.9c0.2-0.1,3.9-2,6.6-1.6c0.7,0,1.3,0.2,1.7,0.6c0,0,0,0,0,0h0c0.8,0.7,1.1,1.9,0.9,3.6c0,0.1,0,0.1,0,0.2
		c-0.1,0.6-0.2,1.2-0.4,1.7c-0.1,0.2-0.2,0.4-0.2,0.7c-2.2,6.1-4.5,12.1-6.6,18.2c-1.5,4.2,0.3,7.4,4.1,8.1c0.3,0.1,0.6,0.1,1,0.2
		c3.8,0.4,8.1-1.4,10.4-4.4c0.1-0.1,0.1-0.2,0.2-0.3C211.1,66.1,211.4,65.7,210.7,65.3"/>
</g>
</svg>
