<?xml version="1.0" encoding="utf-8"?>
<!-- Generator: Adobe Illustrator 21.0.0, SVG Export Plug-In . SVG Version: 6.00 Build 0)  -->
<svg version="1.1" id="Layer_1" xmlns="http://www.w3.org/2000/svg" xmlns:xlink="http://www.w3.org/1999/xlink" x="0px" y="0px"
	 width="134px" height="40px" viewBox="0 0 134 40" style="enable-background:new 0 0 134 40;" xml:space="preserve">
<style type="text/css">
	.st0{fill:#ED0024;}
	.st1{fill:#FFFFFF;}
</style>
<g>
	<path class="st0" d="M35.3,7.9c2.7,0,4.9-2.2,4.9-4.9c0-1.1-0.4-2.1-1-3h-7.8c-0.6,0.8-1,1.8-1,3C30.4,5.7,32.6,7.9,35.3,7.9z"/>
	<path class="st0" d="M32.4,40h5.7c-0.8-0.6-1.8-1-2.8-1C34.2,39,33.2,39.4,32.4,40z"/>
	<path class="st0" d="M43.6,0c0.3,0.9,0.5,1.9,0.5,3c0,4.9-4,8.9-8.9,8.9c-5,0-8.9-4-8.9-8.9c0-1,0.2-2,0.5-2.9H0v40h27.4
		c1.5-2.9,4.4-4.9,7.9-4.9c3.5,0,6.5,2,7.9,4.9H134V0H43.6z M35.3,32.3c-5,0-8.9-4-8.9-8.9c0.1-4.9,4-8.8,8.9-8.8
		c4.9,0,8.9,4,8.9,8.9C44.1,28.4,40.2,32.4,35.3,32.3z"/>
	<path class="st0" d="M35.3,18.5c-2.7,0-4.9,2.2-4.9,4.9c0,2.7,2.2,4.9,4.9,5c2.7,0,4.9-2.2,4.9-4.9C40.2,20.8,38,18.6,35.3,18.5z"
		/>
</g>
<path class="st1" d="M6.1,25.3c-1.8-0.1-3.4-0.5-4.9-1.6c-0.2-0.1-0.3-0.3-0.5-0.4c-0.2-0.2-0.3-0.4-0.1-0.7c0.4-0.6,0.7-1.2,1-1.8
	c0.3-0.5,0.6-0.5,1.1-0.3c0.8,0.4,1.6,0.8,2.4,1.1c0.3,0.1,0.6,0.1,0.9,0.2c0.8,0,1.4-0.3,1.7-0.9C8,20.1,7.8,19.5,7.2,19
	c-0.5-0.4-1.2-0.8-1.8-1.1c-1-0.6-2.1-1.1-3-1.7c-1.7-1.3-2.3-3-1.8-5c0.6-2,2.1-3.1,4.1-3.5c2.4-0.5,4.6,0.2,6.6,1.6
	c0.4,0.2,0.4,0.6,0.2,0.9c-0.4,0.6-0.8,1.3-1.2,1.9c-0.3,0.4-0.6,0.4-1.1,0.1c-1-0.6-1.9-1.2-3.1-1.3c-0.2,0-0.3,0-0.5,0
	c-0.5,0.1-1,0.3-1.2,0.8c-0.2,0.5-0.1,1.1,0.3,1.4c0.5,0.4,1.1,0.8,1.7,1.1c0.9,0.5,1.9,0.9,2.8,1.4c1.1,0.6,2,1.5,2.4,2.8
	c1,2.7-0.5,5.5-3.3,6.4C7.7,25.1,6.9,25.1,6.1,25.3z"/>
<path class="st1" d="M64,25.3c-1.8-0.1-3.4-0.5-4.9-1.6c-0.1-0.1-0.3-0.2-0.4-0.3c-0.3-0.3-0.4-0.5-0.1-0.9c0.3-0.6,0.6-1.1,1-1.7
	c0.3-0.6,0.6-0.6,1.1-0.3c0.8,0.4,1.6,0.8,2.4,1.1c0.3,0.1,0.7,0.2,1.1,0.1c0.7,0,1.2-0.2,1.5-0.9c0.3-0.6,0.2-1.3-0.3-1.7
	c-0.6-0.5-1.3-0.9-1.9-1.3c-1-0.6-2.1-1.1-3-1.7c-1.6-1.2-2.3-3-1.8-5c0.5-2,2-3.2,4-3.5c2.5-0.5,4.7,0.2,6.7,1.6
	c0.3,0.2,0.4,0.5,0.2,0.8c-0.4,0.7-0.8,1.3-1.3,2c-0.3,0.4-0.6,0.4-1,0.1c-0.9-0.6-1.9-1.2-3.1-1.3c-0.1,0-0.2,0-0.4,0
	c-0.6,0-1.1,0.3-1.3,0.9c-0.2,0.6,0,1.1,0.4,1.5c0.5,0.4,1.1,0.8,1.7,1.1c0.8,0.4,1.7,0.7,2.4,1.2c1.2,0.7,2.2,1.6,2.7,3
	c0.9,2.6-0.5,5.5-3.3,6.4C65.7,25.1,64.8,25.1,64,25.3z"/>
<path class="st1" d="M49.2,11.3c-1.1,0-2.1,0-3.1,0c-0.8,0-0.9-0.1-0.9-0.9c0-0.7,0-1.4,0-2.1c0-0.5,0.2-0.7,0.7-0.7
	c3.5,0,7,0,10.5,0c0.5,0,0.7,0.2,0.7,0.7c0,0.8,0,1.5,0,2.3c0,0.6-0.1,0.7-0.7,0.7c-1.1,0-2.2,0-3.3,0c0,0.2,0,0.4,0,0.6
	c0,4.1,0,8.1,0,12.2c0,0.8-0.1,0.9-0.9,0.9c-0.7,0-1.5,0-2.2,0c-0.7,0-0.8-0.1-0.8-0.8c0-4.1,0-8.1,0-12.2
	C49.2,11.8,49.2,11.6,49.2,11.3z"/>
<path class="st1" d="M19,21.3c1.9,0,2.3,0,4.1,0c0.8,0,0.8,0.1,0.8,0.8c0,0.7,0,1.4,0,2.2c0,0.5-0.2,0.6-0.7,0.6c-3,0-4.5,0-7.4,0
	c-0.5,0-0.7-0.2-0.7-0.7c0-5.3,0-10.6,0-15.9c0-0.6,0.1-0.7,0.7-0.7c0.8,0,1.5,0,2.3,0c0.8,0,0.8,0.1,0.8,0.8c0,4.1,0,8.1,0,12.2
	C19,20.9,19,21.1,19,21.3z"/>
<path class="st1" d="M118.9,17c-0.3,2-0.6,3.9-0.8,5.8c-0.1,0.5-0.2,1.1-0.2,1.6c-0.1,0.4-0.3,0.6-0.7,0.6c-0.8,0-1.7,0-2.5,0
	c-0.6,0-0.7-0.2-0.6-0.7c0.9-5.4,1.8-10.7,2.7-16.1c0.1-0.3,0.1-0.6,0.5-0.7c0.4-0.1,0.7,0,1,0.5c1.8,3.3,3.6,6.7,5.4,10
	c0.1,0.1,0.1,0.3,0.3,0.5c0.7-1.2,1.3-2.4,1.9-3.6c1.2-2.3,2.4-4.5,3.7-6.8c0.2-0.3,0.4-0.5,0.8-0.5c0.4,0,0.6,0.2,0.7,0.6
	c0.9,5.4,1.8,10.8,2.7,16.2c0.1,0.6,0,0.8-0.6,0.8c-0.8,0-1.6,0-2.5,0c-0.5,0-0.7-0.2-0.7-0.6c-0.3-2.4-0.7-4.7-1-7.1
	c0-0.1,0-0.1-0.1-0.3c-0.1,0.2-0.2,0.4-0.3,0.5c-1.2,2.4-2.5,4.8-3.7,7.1c-0.2,0.3-0.3,0.6-0.8,0.6c-0.4,0-0.6-0.2-0.8-0.6
	c-1.2-2.4-2.5-4.8-3.7-7.1C119.2,17.4,119.1,17.3,118.9,17z"/>
<path class="st1" d="M94.4,16.4c0-4.9,4-8.9,8.9-8.8c4.9,0.1,8.9,4,8.8,8.9c0,4.9-4,8.9-8.9,8.8C98.2,25.2,94.3,21.3,94.4,16.4z
	 M98.3,16.4c0,2.7,2.2,4.9,4.9,4.9c2.7,0,4.9-2.2,4.9-4.9c0-2.7-2.2-4.9-4.9-4.9C100.6,11.5,98.3,13.7,98.3,16.4z"/>
<path class="st1" d="M86.7,7.4c2.2,0.1,4.1,0.8,5.8,2.2c0.5,0.4,0.5,0.6,0,1.1c-0.5,0.5-1,1-1.5,1.6c-0.3,0.4-0.6,0.4-1,0.1
	c-2.3-1.8-5.5-1.4-7.1,1c-1.7,2.5-1,5.9,1.5,7.3c1.9,1.1,3.7,0.9,5.5-0.3c0.6-0.4,0.7-0.4,1.2,0.1c0.5,0.5,1,1.1,1.5,1.6
	c0.3,0.4,0.3,0.6-0.1,1c-4.4,4.1-12,2.3-14.1-3.4C76.6,14.8,79,9.7,84,8C84.8,7.7,85.8,7.6,86.7,7.4z"/>
<path class="st1" d="M74.5,25.3c-1.3,0-2.3-1-2.3-2.3c0-1.3,1-2.4,2.3-2.4c1.3,0,2.3,1.1,2.3,2.4C76.9,24.2,75.8,25.3,74.5,25.3z"/>
</svg>
